<?xml version="1.0" encoding="UTF-8"?>
<svg id="Warstwa_2" data-name="Warstwa 2" xmlns="http://www.w3.org/2000/svg" xmlns:xlink="http://www.w3.org/1999/xlink" viewBox="0 0 112.69 112.69">
  <defs>
    <style>
      .cls-1 {
        fill: #f6f6f6;
      }

      .cls-2 {
        fill: url(#Gradient_bez_nazwy_38);
      }
    </style>
    <linearGradient id="Gradient_bez_nazwy_38" data-name="Gradient bez nazwy 38" x1="56.35" y1="112.69" x2="56.35" y2="0" gradientUnits="userSpaceOnUse">
      <stop offset="0" stop-color="#850613"/>
      <stop offset=".06" stop-color="#8c0613"/>
      <stop offset=".49" stop-color="#bb0613"/>
      <stop offset=".81" stop-color="#d80613"/>
      <stop offset="1" stop-color="#e30613"/>
    </linearGradient>
  </defs>
  <g id="Warstwa_2-2" data-name="Warstwa 2">
    <g>
      <rect class="cls-2" width="112.69" height="112.69" rx="19.31" ry="19.31"/>
      <g>
        <g>
          <rect class="cls-1" x="62.48" y="21.06" width="5.63" height="5.63"/>
          <rect class="cls-1" x="52.4" y="25.65" width="5.63" height="5.63"/>
          <rect class="cls-1" x="50.72" y="40.49" width="11.25" height="11.25"/>
          <path class="cls-1" d="M63.77,61.12c0,8.86-8.23,12.35-18.54,18.31-10.32-5.96-18.54-9.44-18.54-18.31v-22.09h23.21v-7.79h-30.62v30.91c0,12.4,11.51,17.28,25.95,25.62,14.44-8.34,25.95-13.22,25.95-25.62v-10.4h-7.41v9.38Z"/>
          <rect class="cls-1" x="59.92" y="31.4" width="11.25" height="11.25"/>
        </g>
        <path class="cls-1" d="M62.78,87.81l29.45-.04c1.61.3,1.62,3.78-.22,3.86l-29.03-.02c-1.55-.27-1.51-3.42-.2-3.8Z"/>
      </g>
    </g>
  </g>
</svg>