<?xml version="1.0" encoding="UTF-8"?>
<svg id="Warstwa_2" data-name="Warstwa 2" xmlns="http://www.w3.org/2000/svg" viewBox="0 0 78.36 78.36">
  <defs>
    <style>
      .cls-1 {
        fill: #f6f6f6;
      }

      .cls-2 {
        fill: #fff;
      }
    </style>
  </defs>
  <g id="Warstwa_2-2" data-name="Warstwa 2">
    <g>
      <path class="cls-1" d="M60.32,8.55H18.04c-5.23,0-9.48,4.25-9.48,9.48v42.29c0,5.23,4.25,9.48,9.48,9.48h42.29c5.23,0,9.48-4.25,9.48-9.48V18.04c0-5.23-4.25-9.48-9.48-9.48ZM42.68,19.04h3.21v3.21h-3.21v-3.21ZM36.93,21.65h3.21v3.21h-3.21v-3.21ZM35.97,30.13h5.25v-5.19h6.42v6.42h-5.25v5.19h-6.42v-6.42ZM18.01,42.49v-17.65h17.48v4.45h-13.25v12.61c0,5.06,4.7,7.05,10.59,10.45,5.89-3.4,10.59-5.39,10.59-10.45v-5.35h4.23v5.94c0,7.08-6.57,9.87-14.82,14.63-8.24-4.76-14.82-7.55-14.82-14.63ZM59.54,59.32h-16.57c-.89-.16-.86-1.96-.11-2.18l16.81-.03c.92.17.92,2.16-.13,2.2Z"/>
      <path class="cls-2" d="M66.23,0H12.13C5.44,0,0,5.44,0,12.13v54.1c0,6.69,5.44,12.13,12.13,12.13h54.1c6.69,0,12.13-5.44,12.13-12.13V12.13c0-6.69-5.44-12.13-12.13-12.13ZM73.57,62.92c0,5.87-4.78,10.65-10.65,10.65H15.44c-5.87,0-10.65-4.78-10.65-10.65V15.44c0-5.87,4.78-10.65,10.65-10.65h47.48c5.87,0,10.65,4.78,10.65,10.65v47.48Z"/>
    </g>
  </g>
</svg>